<svg width="159" height="151" xmlns="http://www.w3.org/2000/svg"><g fill="#535455" fill-rule="evenodd"><path d="M14.492 14.492v121.374H117.75V14.492H14.492zm117.75 31.702H117.75v104.164H9.058A9.058 9.058 0 0 1 0 141.301V9.058A9.058 9.058 0 0 1 9.058 0h114.127a9.058 9.058 0 0 1 9.058 9.058v37.136z" fill-rule="nonzero"/><path d="M0 41.666h124.997v14.492H0z"/><path d="M117.75 13.587l14.493 4.528v30.686c0 4.063-3.244 7.357-7.246 7.357-4.002 0-7.247-3.294-7.247-7.357V13.587zM124.997 135.866a7.246 7.246 0 0 1 0 14.492h-16.51v-14.492h16.51z" fill-rule="nonzero"/><g transform="translate(62.557 64.319)"><rect y="24.456" width="83.14" height="14.492" rx="7.246"/><path d="M54.982 49.64V13.788a8 8 0 0 1 12.711-6.466l24.603 17.926a8 8 0 0 1 0 12.932L67.693 56.106a8 8 0 0 1-12.711-6.466z"/></g></g></svg>
